HIERARCHY
ROOT mixamorig:Hips
{
  OFFSET 0.000000 0.000000 0.000000
  CHANNELS 6 Xposition Yposition Zposition Xrotation Yrotation Zrotation
  JOINT mixamorig:Spine
  {
    OFFSET 1.719088 25.168327 -4.215464
    CHANNELS 3 Xrotation Yrotation Zrotation
    JOINT mixamorig:Spine2
    {
      OFFSET 1.719088 25.168327 -4.215464
      CHANNELS 3 Xrotation Yrotation Zrotation
      JOINT mixamorig:Neck
      {
        OFFSET 0.000000 4.406908 0.000000
        CHANNELS 3 Xrotation Yrotation Zrotation
        JOINT mixamorig:Head
        {
          OFFSET 0.000000 5.131571 0.000000
          CHANNELS 3 Xrotation Yrotation Zrotation
          End Site
          {
            OFFSET 0.000000 1.539471 0.000000
          }
        }
      }
      JOINT mixamorig:LeftShoulder
      {
        OFFSET 16.992445 2.816427 -1.180073
        CHANNELS 3 Xrotation Yrotation Zrotation
        JOINT mixamorig:LeftArm
        {
          OFFSET 18.068965 -3.121954 -11.587926
          CHANNELS 3 Xrotation Yrotation Zrotation
          JOINT mixamorig:LeftForeArm
          {
            OFFSET -5.408186 3.708938 -12.576431
            CHANNELS 3 Xrotation Yrotation Zrotation
            JOINT mixamorig:LeftHand
            {
              OFFSET -4.000407 1.106506 -1.590694
              CHANNELS 3 Xrotation Yrotation Zrotation
              End Site
              {
                OFFSET -1.200122 0.331952 -0.477208
              }
            }
          }
        }
      }
      JOINT mixamorig:RightShoulder
      {
        OFFSET -16.992445 2.816427 1.180073
        CHANNELS 3 Xrotation Yrotation Zrotation
        JOINT mixamorig:RightArm
        {
          OFFSET -17.304324 -8.555022 -19.418815
          CHANNELS 3 Xrotation Yrotation Zrotation
          JOINT mixamorig:RightForeArm
          {
            OFFSET 6.382291 6.914577 -18.508580
            CHANNELS 3 Xrotation Yrotation Zrotation
            JOINT mixamorig:RightHand
            {
              OFFSET 5.389738 2.442453 -3.552078
              CHANNELS 3 Xrotation Yrotation Zrotation
              End Site
              {
                OFFSET 1.616921 0.732736 -1.065623
              }
            }
          }
        }
      }
    }
  }
  JOINT mixamorig:LeftUpLeg
  {
    OFFSET 9.167292 0.244222 2.969378
    CHANNELS 3 Xrotation Yrotation Zrotation
    JOINT mixamorig:LeftLeg
    {
      OFFSET 0.950825 -44.361071 -2.100328
      CHANNELS 3 Xrotation Yrotation Zrotation
      JOINT mixamorig:LeftFoot
      {
        OFFSET -0.880896 -36.612737 19.559270
        CHANNELS 3 Xrotation Yrotation Zrotation
        JOINT mixamorig:LeftToeBase
        {
          OFFSET 3.220046 -3.157198 -4.466946
          CHANNELS 3 Xrotation Yrotation Zrotation
          End Site
          {
            OFFSET 0.966014 -0.947160 -1.340084
          }
        }
      }
    }
  }
  JOINT mixamorig:RightUpLeg
  {
    OFFSET -9.167292 -0.244222 -2.969378
    CHANNELS 3 Xrotation Yrotation Zrotation
    JOINT mixamorig:RightLeg
    {
      OFFSET 3.688810 -35.639201 3.437236
      CHANNELS 3 Xrotation Yrotation Zrotation
      JOINT mixamorig:RightFoot
      {
        OFFSET -4.221295 -41.549927 18.088705
        CHANNELS 3 Xrotation Yrotation Zrotation
        JOINT mixamorig:RightToeBase
        {
          OFFSET -4.472390 -1.075068 -9.863885
          CHANNELS 3 Xrotation Yrotation Zrotation
          End Site
          {
            OFFSET -1.341717 -0.322520 -2.959165
          }
        }
      }
    }
  }
}
MOTION
Frames: 7
Frame Time: 0.083333
0.092667 0.233302 0.114229 9.798712 -1.043077 -5.016546 0.000000 0.000000 0.000000 -8.399111 16.346550 4.438791 1.871623 -0.692828 7.892948 1.760369 -0.948523 7.891173 -9.860646 29.305659 -21.441703 21.913684 -46.103193 14.704133 5.553415 -12.153226 -21.945991 0.000000 0.000000 0.000000 -11.390430 -40.311696 13.439516 8.930892 36.922968 -17.800813 4.789428 10.043063 6.644445 0.000000 0.000000 0.000000 -4.162780 0.809865 4.547111 -6.793109 -2.145385 -3.089752 -9.718329 17.174064 -14.756105 0.000000 0.000000 0.000000 4.040786 3.270990 0.151077 -19.533787 -1.002181 7.708137 -26.249136 -12.775253 13.420451 0.000000 0.000000 0.000000
0.110040 0.271799 0.100760 11.646182 -1.202213 -6.547557 0.000000 0.000000 0.000000 -8.235848 18.561937 5.222596 0.339520 -1.505637 7.658414 0.135399 -1.537448 7.646770 -22.589023 25.651971 -40.989176 76.540522 -24.012565 42.125167 14.253512 0.537066 -55.528076 0.000000 0.000000 0.000000 -16.671283 -36.803454 12.782254 13.789704 29.990159 -18.219861 3.902085 12.592360 9.035420 0.000000 0.000000 0.000000 -6.310135 0.675252 5.835731 -2.964348 -2.402632 -3.369553 -18.565129 15.867867 -18.170120 0.000000 0.000000 0.000000 8.115486 4.993655 -2.856326 -28.535349 -2.738867 12.862609 -32.900125 -13.442306 16.411279 0.000000 0.000000 0.000000
0.119863 0.309169 0.083622 11.497611 -1.186866 -6.332472 0.000000 0.000000 0.000000 -8.245779 18.455188 5.079610 0.425684 -1.627581 7.695914 0.203274 -1.669917 7.680661 -22.927249 26.208732 -42.144818 74.835662 -22.328722 43.439930 14.169018 -1.150030 -53.456465 0.000000 0.000000 0.000000 -16.630990 -37.291595 13.082659 14.046028 29.302379 -18.913225 3.761943 12.989896 8.913395 0.000000 0.000000 0.000000 -6.350104 0.684275 5.502965 -2.721960 -2.340005 -3.114122 -18.683213 16.073152 -18.579406 0.000000 0.000000 0.000000 7.798364 4.791683 -2.715922 -27.676501 -2.505573 12.597441 -32.322262 -13.331125 15.993030 0.000000 0.000000 0.000000
0.123834 0.335837 0.076537 11.348777 -1.170934 -6.117068 0.000000 0.000000 0.000000 -8.255484 18.347884 4.935359 0.511856 -1.750219 7.733065 0.270860 -1.803162 7.713799 -23.276799 26.758782 -43.317565 73.057607 -20.550608 44.770905 13.968488 -2.857832 -51.254592 0.000000 0.000000 0.000000 -16.595181 -37.775194 13.382067 14.293373 28.579743 -19.614268 3.610102 13.404414 8.800577 0.000000 0.000000 0.000000 -6.391086 0.692583 5.169018 -2.478203 -2.276001 -2.857455 -18.803680 16.283196 -18.994800 0.000000 0.000000 0.000000 7.478671 4.594133 -2.575113 -26.814118 -2.279215 12.319633 -31.739123 -13.208302 15.572798 0.000000 0.000000 0.000000
0.125160 0.357219 0.078978 11.199688 -1.154414 -5.901355 0.000000 0.000000 -0.000000 -8.264972 18.240023 4.789851 0.598034 -1.873540 7.769855 0.338156 -1.937173 7.746165 -23.637656 27.301728 -44.506831 71.210980 -18.676929 46.125998 13.650883 -4.572452 -48.944528 0.000000 0.000000 0.000000 -16.563826 -38.254092 13.680486 14.531446 27.822335 -20.323892 3.445529 13.835705 8.697843 0.000000 0.000000 0.000000 -6.433106 0.700177 4.833896 -2.233078 -2.210594 -2.599561 -18.926624 16.498090 -19.416490 0.000000 0.000000 0.000000 7.156553 4.401092 -2.433998 -25.948370 -2.060214 12.029440 -31.151367 -13.073624 15.151022 0.000000 0.000000 0.000000
0.114186 0.371664 0.081272 11.050352 -1.137303 -5.685343 0.000000 0.000000 -0.000000 -8.274255 18.131604 4.643090 0.684204 -1.997533 7.806282 0.405145 -2.071935 7.777757 -24.009757 27.837193 -45.711914 69.301229 -16.708348 47.514130 13.217233 -6.278810 -46.552460 0.000000 0.000000 0.000000 -16.536881 -38.728143 13.977918 14.759966 27.030370 -21.043068 3.267157 14.283423 8.606173 0.000000 0.000000 0.000000 -6.476188 0.707055 4.497605 -1.986586 -2.143758 -2.340444 -19.052113 16.717951 -19.844652 0.000000 0.000000 0.000000 6.832158 4.212646 -2.292683 -25.079431 -1.848982 11.727143 -30.559678 -12.926916 14.728146 0.000000 0.000000 0.000000
0.095025 0.372555 0.087233 10.900775 -1.119601 -5.469040 0.000000 0.000000 -0.000000 -8.283343 18.022627 4.495084 0.770359 -2.122189 7.842346 0.471820 -2.207436 7.808568 -24.393033 28.364802 -46.932055 67.334521 -14.647663 48.944951 12.670876 -7.961033 -44.107722 0.000000 0.000000 0.000000 -16.514293 -39.197211 14.274367 14.978690 26.204198 -21.772846 3.073847 14.747097 8.526604 0.000000 0.000000 0.000000 -6.520356 0.713218 4.160150 -1.738730 -2.075465 -2.080113 -19.180222 16.942896 -20.279473 0.000000 0.000000 0.000000 6.505638 4.028875 -2.151269 -24.207494 -1.645917 11.413042 -29.964761 -12.768032 14.304630 0.000000 0.000000 0.000000
